REM DIRINDEX 1\2,1\3,1\4
REM DIRNAME folder01,folder02,folder03,folder04
TITLE ""
FILE "073 073_TOEFL_3900.mp3" MP3
  TRACK 01 AUDIO
    TITLE "2:cjc151_3162"
    INDEX 01 00:00:00
  TRACK 02 AUDIO
    TITLE "0:"
    INDEX 01 00:01:13
  TRACK 03 AUDIO
    TITLE "3:cjc151_3163"
    INDEX 01 00:02:67
  TRACK 04 AUDIO
    TITLE "0:"
    INDEX 01 00:06:30
  TRACK 05 AUDIO
    TITLE "2:cjc151_3164"
    INDEX 01 00:08:15
  TRACK 06 AUDIO
    TITLE "0:"
    INDEX 01 00:09:26
  TRACK 07 AUDIO
    TITLE "3:cjc151_3165"
    INDEX 01 00:11:15
  TRACK 08 AUDIO
    TITLE "0:"
    INDEX 01 00:15:27
  TRACK 09 AUDIO
    TITLE "2:cjc151_3166"
    INDEX 01 00:17:08
  TRACK 10 AUDIO
    TITLE "0:"
    INDEX 01 00:18:23
  TRACK 11 AUDIO
    TITLE "3:cjc151_3167"
    INDEX 01 00:20:02
  TRACK 12 AUDIO
    TITLE "0:"
    INDEX 01 00:23:73
  TRACK 13 AUDIO
    TITLE "2:cjc151_3168"
    INDEX 01 00:25:46
  TRACK 14 AUDIO
    TITLE "0:"
    INDEX 01 00:27:06
  TRACK 15 AUDIO
    TITLE "3:cjc151_3169"
    INDEX 01 00:28:60
  TRACK 16 AUDIO
    TITLE "0:"
    INDEX 01 00:32:64
  TRACK 17 AUDIO
    TITLE "2:cjc151_3170"
    INDEX 01 00:34:43
  TRACK 18 AUDIO
    TITLE "0:"
    INDEX 01 00:35:39
  TRACK 19 AUDIO
    TITLE "3:cjc151_3171"
    INDEX 01 00:37:16
  TRACK 20 AUDIO
    TITLE "0:"
    INDEX 01 00:40:32
  TRACK 21 AUDIO
    TITLE "2:cjc151_3172"
    INDEX 01 00:42:12
  TRACK 22 AUDIO
    TITLE "0:"
    INDEX 01 00:43:07
  TRACK 23 AUDIO
    TITLE "3:cjc151_3173"
    INDEX 01 00:44:61
  TRACK 24 AUDIO
    TITLE "0:"
    INDEX 01 00:48:04
  TRACK 25 AUDIO
    TITLE "2:cjc151_3174"
    INDEX 01 00:49:59
  TRACK 26 AUDIO
    TITLE "0:"
    INDEX 01 00:50:48
  TRACK 27 AUDIO
    TITLE "3:cjc151_3175"
    INDEX 01 00:52:28
  TRACK 28 AUDIO
    TITLE "0:"
    INDEX 01 00:56:00
  TRACK 29 AUDIO
    TITLE "2:cjc151_3176"
    INDEX 01 00:57:54
  TRACK 30 AUDIO
    TITLE "0:"
    INDEX 01 00:58:38
  TRACK 31 AUDIO
    TITLE "3:cjc151_3177"
    INDEX 01 01:00:25
  TRACK 32 AUDIO
    TITLE "0:"
    INDEX 01 01:04:11
  TRACK 33 AUDIO
    TITLE "2:cjc151_3178"
    INDEX 01 01:05:68
  TRACK 34 AUDIO
    TITLE "0:"
    INDEX 01 01:06:51
  TRACK 35 AUDIO
    TITLE "3:cjc151_3179"
    INDEX 01 01:08:27
  TRACK 36 AUDIO
    TITLE "0:"
    INDEX 01 01:11:68
  TRACK 37 AUDIO
    TITLE "2:cjc151_3180"
    INDEX 01 01:13:55
  TRACK 38 AUDIO
    TITLE "0:"
    INDEX 01 01:14:61
  TRACK 39 AUDIO
    TITLE "3:cjc151_3181"
    INDEX 01 01:16:40
  TRACK 40 AUDIO
    TITLE "0:"
    INDEX 01 01:20:67
  TRACK 41 AUDIO
    TITLE "2:cjc151_3182"
    INDEX 01 01:22:46
  TRACK 42 AUDIO
    TITLE "0:"
    INDEX 01 01:23:48
  TRACK 43 AUDIO
    TITLE "3:cjc151_3183"
    INDEX 01 01:25:27
  TRACK 44 AUDIO
    TITLE "0:"
    INDEX 01 01:29:11
  TRACK 45 AUDIO
    TITLE "2:cjc151_3184"
    INDEX 01 01:30:67
  TRACK 46 AUDIO
    TITLE "0:"
    INDEX 01 01:32:04
  TRACK 47 AUDIO
    TITLE "3:cjc151_3185"
    INDEX 01 01:33:58
  TRACK 48 AUDIO
    TITLE "0:"
    INDEX 01 01:37:46
  TRACK 49 AUDIO
    TITLE "2:cjc151_3186"
    INDEX 01 01:39:21
  TRACK 50 AUDIO
    TITLE "0:"
    INDEX 01 01:40:15
  TRACK 51 AUDIO
    TITLE "3:cjc151_3187"
    INDEX 01 01:41:67
  TRACK 52 AUDIO
    TITLE "0:"
    INDEX 01 01:45:38
  TRACK 53 AUDIO
    TITLE "2:cjc151_3188"
    INDEX 01 01:47:17
  TRACK 54 AUDIO
    TITLE "0:"
    INDEX 01 01:48:11
  TRACK 55 AUDIO
    TITLE "3:cjc151_3189"
    INDEX 01 01:49:61
  TRACK 56 AUDIO
    TITLE "0:"
    INDEX 01 01:53:06
  TRACK 57 AUDIO
    TITLE "2:cjc151_3190"
    INDEX 01 01:54:62
  TRACK 58 AUDIO
    TITLE "0:"
    INDEX 01 01:57:11
  TRACK 59 AUDIO
    TITLE "3:cjc151_3191"
    INDEX 01 01:58:70
  TRACK 60 AUDIO
    TITLE "0:"
    INDEX 01 02:02:09
  TRACK 61 AUDIO
    TITLE "2:cjc151_3192"
    INDEX 01 02:03:65
  TRACK 62 AUDIO
    TITLE "0:"
    INDEX 01 02:04:64
  TRACK 63 AUDIO
    TITLE "3:cjc151_3193"
    INDEX 01 02:06:42
  TRACK 64 AUDIO
    TITLE "0:"
    INDEX 01 02:09:69
  TRACK 65 AUDIO
    TITLE "2:cjc151_3194"
    INDEX 01 02:11:47
  TRACK 66 AUDIO
    TITLE "0:"
    INDEX 01 02:12:54
  TRACK 67 AUDIO
    TITLE "3:cjc151_3195"
    INDEX 01 02:14:31
  TRACK 68 AUDIO
    TITLE "0:"
    INDEX 01 02:18:43
  TRACK 69 AUDIO
    TITLE "2:cjc151_3196"
    INDEX 01 02:20:22
  TRACK 70 AUDIO
    TITLE "0:"
    INDEX 01 02:21:22
  TRACK 71 AUDIO
    TITLE "3:cjc151_3197"
    INDEX 01 02:22:74
  TRACK 72 AUDIO
    TITLE "0:"
    INDEX 01 02:28:55
  TRACK 73 AUDIO
    TITLE "2:cjc151_3198"
    INDEX 01 02:30:34
  TRACK 74 AUDIO
    TITLE "0:"
    INDEX 01 02:31:48
  TRACK 75 AUDIO
    TITLE "3:cjc151_3199"
    INDEX 01 02:33:21
  TRACK 76 AUDIO
    TITLE "0:"
    INDEX 01 02:37:15
  TRACK 77 AUDIO
    TITLE "2:cjc151_3200"
    INDEX 01 02:38:63
  TRACK 78 AUDIO
    TITLE "0:"
    INDEX 01 02:39:69
  TRACK 79 AUDIO
    TITLE "3:cjc151_3201"
    INDEX 01 02:41:46
  TRACK 80 AUDIO
    TITLE "0:"
    INDEX 01 02:44:70
  TRACK 81 AUDIO
    TITLE "2:cjc151_3202"
    INDEX 01 02:46:45
  TRACK 82 AUDIO
    TITLE "0:"
    INDEX 01 02:47:51
  TRACK 83 AUDIO
    TITLE "3:cjc151_3203"
    INDEX 01 02:49:28
  TRACK 84 AUDIO
    TITLE "0:"
    INDEX 01 02:53:63
  TRACK 85 AUDIO
    TITLE "2:cjc151_3204"
    INDEX 01 02:55:42
  TRACK 86 AUDIO
    TITLE "0:"
    INDEX 01 02:56:40
  TRACK 87 AUDIO
    TITLE "3:cjc151_3205"
    INDEX 01 02:58:13
  TRACK 88 AUDIO
    TITLE "0:"
    INDEX 01 03:01:45
